<svg xmlns="http://www.w3.org/2000/svg" width="220.08" height="50.739" viewBox="0 0 220.08 50.739"><g transform="translate(-806.92 -38.956)"><g transform="translate(806.92 2.198)"><g transform="translate(-0.001 36.758)"><path d="M60.362,52.086c-.263-1.976-.3-5.379,1.535-6.522a.687.687,0,0,0,.086-.077c1.5-.48,2.539-1.153,1.724-2.06L41.573,36.758,5.734,41.741S1.63,42.327,2,48.7c.2,3.47,1.287,5.175,2.239,6.013L1.295,55.6c-.816.906.222,1.58,1.723,2.059a.593.593,0,0,0,.086.078c1.834,1.144,1.8,4.547,1.535,6.523C-1.951,66.134.414,66.744.414,66.744l1.445.35C.843,68.012-.167,69.755.022,73.059c.367,6.375,3.738,6.815,3.738,6.815L27.214,87.5l35.4-8.574s2.366-.611-4.225-2.482c-.265-1.973-.3-5.376,1.537-6.522a.542.542,0,0,0,.086-.077c1.5-.48,2.538-1.153,1.723-2.059L60.2,67.318c1.026-.619,2.568-2.236,2.809-6.437.167-2.89-.587-4.582-1.46-5.578l3.041-.736S66.952,53.957,60.362,52.086ZM30.752,52l5.953-1.223,20.118-4.134,3-.616a10.377,10.377,0,0,0-.759,5.693c.035.349.075.667.113.909l-3.281.816L30.5,59.765Zm-25.571,6.2,3,.616L27.5,62.8l1.688.346h0l5.062,1.04.25,7.761L8.4,65.451l-2.573-.639c.038-.242.078-.561.114-.91A10.38,10.38,0,0,0,5.181,58.209ZM4.017,48.4c-.036-1.7.266-2.923.877-3.546a1.592,1.592,0,0,1,1.162-.481,1.971,1.971,0,0,1,.294.023l15.442,5.034,7.7,2.512-.253,7.815L7.63,53.7l-1.141-.319a.691.691,0,0,0-.143-.022C6.257,53.347,4.121,53.151,4.017,48.4ZM27.27,84.111,4.515,77.732a.676.676,0,0,0-.142-.022c-.091-.006-2.228-.2-2.332-4.955-.037-1.7.267-2.924.877-3.548a1.6,1.6,0,0,1,1.163-.481,2.055,2.055,0,0,1,.295.022h0L27.521,76.3Zm29.816-8.032c.036.35.076.668.115.91L28.527,84.122l.251-7.761,6.13-1.26.905.219,3.393-1.1L54.848,71l3-.617A10.368,10.368,0,0,0,57.086,76.079Zm1.579-10.548a.551.551,0,0,0-.153.024l-2.163.605L35.758,71.934l-.252-7.815,6.756-2.2L58.62,56.58a1.7,1.7,0,0,1,1.491.449c.61.623.913,1.85.877,3.546C60.881,65.327,58.743,65.525,58.665,65.531Z" transform="translate(0.001 -36.758)"/></g></g><text transform="translate(894 74)" font-size="28" font-family="Roboto-Bold, Roboto" font-weight="700"><tspan x="0" y="0">BOOKLIST</tspan></text></g></svg>